# xmcd CD database file
#
# Track frame offsets:
#	150
#	5383
#	37378
#	58653
#	78677
#	106594
#	130975
#	167726
#	196938
#	213795
#	241674
#
# Disc length: 3478 seconds
#
# Revision: 2
# Processed by: cddbd v1.5.1PL0 Copyright (c) Steve Scherf et al.
# Submitted via: CDex 1.50beta8
#
DISCID=8c0d940b
DTITLE=Various Artist - Raw material
DYEAR=2003
DGENRE=Electronic
TTITLE0=TAKAYUKI SHIRAISHI/INTRO
TTITLE1=ROOT UNDERTONE/WARM
TTITLE2=RAINSTICK ORCHESTRA/TRICK
TTITLE3=九龍/THE DAWN OF TIME
TTITLE4=ADAPTED aka SEIN/LIGHTS
TTITLE5=ROOT UNDERTONE/ORANGE PEEL
TTITLE6=DAIKEI/鏡 (Super electranic dub mix)
TTITLE7=ROOT UNDERTONE/O-DUB
TTITLE8=TAKAYUKI SHIRAISHI/PHOENIX
TTITLE9=九龍/THE SCENE CHANGES
TTITLE10=413/MOTHER
EXTD=YEAR: 2003
EXTT0=
EXTT1=
EXTT2=
EXTT3=
EXTT4=
EXTT5=
EXTT6=
EXTT7=
EXTT8=
EXTT9=
EXTT10=
PLAYORDER=
